<svg width="92" height="45" viewBox="0 0 92 45" fill="none" xmlns="http://www.w3.org/2000/svg">
<path d="M2.8923 27.3907C3.15842 27.3408 3.45781 27.3076 3.79046 27.3076C3.84036 25.5611 4.83831 22.6671 5.9028 19.6732C4.90484 19.5235 4.05658 19.5235 3.54097 19.8728C3.17505 18.4257 4.55556 18.143 6.45168 18.1763C7.433 15.3986 8.38106 12.6875 8.58065 10.8745C7.00055 10.7747 5.60341 10.9411 4.72189 11.939C4.43913 12.2384 3.67403 8.46282 7.13361 7.83078C9.94452 7.31517 15.9323 9.61047 17.8117 6.96588C18.0945 6.58333 18.3274 10.0429 16.4479 10.9743C15.2503 11.5565 13.6702 11.49 12.0236 11.2904C11.7907 12.8871 10.9258 15.5317 10.0277 18.4091C11.9903 18.5422 13.7201 18.5255 14.086 17.5941C14.6682 21.0703 12.1899 20.9539 9.42891 20.3884C8.66381 22.9498 7.94861 25.5445 7.68249 27.6568C10.0942 27.9396 12.5059 28.0394 13.5704 26.5258C13.8532 26.1433 14.086 29.6029 12.2066 30.5177C8.9133 32.1476 2.8424 28.8211 0.48057 31.4823C0.197816 31.7817 -0.567284 28.0061 2.8923 27.3907ZM16.9136 17.1617C16.897 17.0951 20.5894 16.7625 20.5229 18.8915C20.473 20.2553 17.2795 27.241 17.9448 29.4864C19.5748 27.4074 23.9159 17.1617 23.9159 17.1617C23.8993 17.0951 27.5917 16.7625 27.5086 18.8915C27.4587 20.272 24.6644 25.8439 24.9471 29.5862C26.2278 28.239 27.7747 24.5299 28.0574 23.8313C28.0907 23.7648 28.1572 23.7316 28.2238 23.7316C28.3568 23.7316 28.44 23.848 28.4067 23.9644C28.0075 25.1952 26.3443 30.2682 25.4794 30.7838C24.4814 31.3992 21.7703 30.368 21.5208 29.2369C21.0385 27.1412 23.0677 22.1515 23.7496 19.141C22.419 22.6172 19.3419 30.4179 18.2775 30.8836C17.2961 31.2994 14.6349 30.4511 14.4187 29.1205C14.0195 26.7088 17.4292 19.0911 16.9136 17.1617ZM24.3151 38.9171C23.6332 34.7257 29.9868 20.6213 29.3215 17.1284C29.3049 17.0619 33.147 17.1284 32.9142 19.2407C32.6979 21.2533 29.8371 29.187 28.4899 35.0916C30.9016 26.1433 35.5421 17.6773 36.2573 17.2615C36.906 16.8789 38.9019 17.4444 39.7169 18.8748C40.8146 20.8042 38.4861 30.1185 34.6273 30.9002C33.7624 31.0832 31.7166 29.8025 31.3008 29.2868C29.8704 32.9626 28.5398 37.0709 27.9077 40.8631C27.8246 41.2623 24.5978 40.6469 24.3151 38.9171ZM36.6066 18.3093C36.3904 18.2262 33.8289 22.8667 31.4837 28.8045C34.5608 30.5343 37.3883 18.6253 36.6066 18.3093ZM39.3842 28.9875C38.7023 24.7794 45.1391 10.1926 44.7067 7.08231C44.69 7.01578 48.2162 7.19874 47.9833 9.31108C47.7504 11.49 44.374 20.6712 43.243 26.6589C44.8564 22.6671 47.6673 16.9621 49.2806 17.1118C50.2121 17.1949 52.0915 18.0765 52.2579 18.642C52.7236 20.2054 49.4636 27.3408 49.3971 29.7027C50.6944 28.4552 52.3244 24.5465 52.6072 23.8313C52.6404 23.7648 52.707 23.7316 52.7735 23.7316C52.9065 23.7316 52.9897 23.848 52.9564 23.9644C52.5573 25.1952 50.7277 30.8337 49.9958 30.9335C48.5488 31.1331 46.1038 30.0852 45.9042 28.7712C45.6547 26.9915 48.4989 21.22 48.7817 18.4257C47.95 18.2927 42.9436 28.3055 42.9769 30.8836C43.0767 31.3493 39.6836 30.7505 39.3842 28.9875ZM52.4076 28.7546C51.4262 25.977 53.655 19.0245 56.1665 17.4112C57.0314 16.8457 59.3766 16.9953 60.1251 17.4943C60.7738 17.9101 60.358 18.3093 60.358 18.3093C57.6468 17.0452 54.4534 28.8211 55.7008 29.9688C57.1479 31.2994 60.5908 20.405 58.5117 19.9726C58.5117 19.9726 59.4764 18.6087 60.3081 18.7085C63.1855 19.0911 61.0066 28.871 56.9815 30.7671C55.8838 31.2828 53.2725 31.183 52.4076 28.7546ZM61.1231 29.1538C60.6906 26.5092 63.9672 19.0578 63.435 17.1284C63.4184 17.0619 67.3104 16.7625 67.2439 18.8915C67.194 20.089 65.0816 24.4468 64.7157 28.0228C65.9798 24.0975 68.8739 16.9454 70.6702 17.1118C71.6016 17.1949 73.2316 17.96 73.3979 18.5089C73.6141 19.2407 71.3854 22.7336 71.9841 24.8958C67.0276 24.6796 70.2377 19.0744 70.1712 18.4257C69.3396 18.2927 64.882 28.2057 64.8987 30.8004C64.9153 30.9002 64.7989 30.9667 64.7157 30.9501C64.0005 30.8669 61.3393 30.4844 61.1231 29.1538ZM78.3544 16.8623C73.5975 16.2302 76.6246 13.5524 76.4251 11.7893C81.5812 12.621 77.9386 14.4007 78.3544 16.8623ZM71.9675 29.1538C71.5018 26.609 74.9281 19.0578 74.4125 17.1284C74.3959 17.0619 78.2546 16.7625 78.1881 18.8915C78.1382 20.272 75.3772 25.7607 75.6101 29.5031C76.8741 28.0893 78.3711 24.5133 78.6538 23.8313C78.6705 23.7648 78.737 23.7316 78.8201 23.7316C78.9366 23.7316 79.0197 23.848 78.9865 23.9644C78.6039 25.1952 76.791 30.5177 75.9926 30.9002C75.1776 31.2661 72.1837 30.4012 71.9675 29.1538ZM81.9138 30.8836C81.315 31.2994 78.6206 30.5676 78.0052 29.4532C77.2068 28.0228 79.2027 20.7709 81.0323 18.4257C82.4627 16.6128 85.5564 17.0619 86.2882 17.4943C86.4712 17.5941 86.5377 17.6939 86.4379 17.9767C86.3215 18.2927 86.0886 18.2262 85.7227 18.1264C83.8598 17.644 81.0656 27.8564 81.2485 29.9355L87.1864 17.2947C87.3859 16.7459 90.9121 17.6606 90.5794 18.3592C90.2468 19.0578 87.8184 27.3408 87.7519 29.7027C89.0492 28.4552 90.6958 24.5465 90.9786 23.8313C91.0119 23.7648 91.0784 23.7316 91.1449 23.7316C91.2613 23.7316 91.3611 23.848 91.3112 23.9644C90.9287 25.1952 89.0991 30.8337 88.3673 30.9335C86.9036 31.1331 84.4586 30.0852 84.2756 28.7712C84.1093 27.6568 85.0241 24.2139 85.8724 21.3864C84.4087 25.1786 82.2465 30.6507 81.9138 30.8836Z" fill="#3C4242"/>
<path d="M0 33.6259H22.4033" stroke="#333333" stroke-width="0.420324" stroke-miterlimit="10" stroke-linecap="round" stroke-linejoin="round"/>
<path d="M31.9858 33.6259H91.0363" stroke="#3C4242" stroke-width="0.420324" stroke-miterlimit="10" stroke-linecap="round" stroke-linejoin="round"/>
<path d="M39.9502 41.2617C39.7866 41.2617 39.5977 41.1972 39.3818 41.0689C39.1667 40.9398 38.9378 40.7693 38.6967 40.5565C38.4555 40.3438 38.2181 40.1126 37.9838 39.8621C37.7503 39.6125 37.5345 39.3636 37.3378 39.1155C37.1412 38.8682 36.976 38.6477 36.8424 38.4549L35.7624 40.7862C35.7101 40.8999 35.6287 40.9805 35.5173 41.0274C35.406 41.0743 35.2854 41.1027 35.1556 41.1127C35.0257 41.1227 34.8975 41.1273 34.7715 41.1273C34.8675 40.989 34.9666 40.83 35.0664 40.6518C35.1671 40.4736 35.2854 40.2585 35.4229 40.0058C35.5604 39.7531 35.7217 39.4466 35.9076 39.0848C36.0934 38.7238 36.3139 38.2913 36.5705 37.789C36.8262 37.2866 37.1289 36.6967 37.4784 36.0184C37.5007 35.9785 37.5306 35.9232 37.5675 35.8517C37.6044 35.7803 37.6236 35.7142 37.6236 35.6551C37.6236 35.6005 37.6051 35.5575 37.5675 35.5253C37.5306 35.493 37.46 35.4769 37.3563 35.4769C37.178 35.4769 37.0052 35.5253 36.8385 35.6213C36.6718 35.7173 36.5228 35.8402 36.393 35.9892C36.2632 36.1375 36.161 36.2911 36.0865 36.4493C36.012 36.6076 35.9752 36.7489 35.9752 36.8726C35.9752 36.967 35.9936 37.0508 36.0305 37.1253C35.7854 37.1253 35.6126 37.0846 35.5127 37.0032C35.4121 36.9217 35.3622 36.8211 35.3622 36.702C35.3622 36.5338 35.4359 36.3656 35.5849 36.1974C35.7332 36.0292 35.9245 35.874 36.1587 35.7334C36.393 35.5921 36.6381 35.4799 36.8938 35.3954C37.1496 35.3117 37.3816 35.2695 37.5898 35.2695C37.7903 35.2695 37.9254 35.3063 37.9961 35.3809C38.0668 35.4554 38.1021 35.5368 38.1021 35.6259C38.1021 35.6804 38.0929 35.735 38.0745 35.7895C38.056 35.844 38.0353 35.8963 38.013 35.9454L37.0774 37.9649C37.1811 37.8658 37.3171 37.7744 37.4838 37.6899C37.6505 37.6061 37.8348 37.5094 38.0353 37.4003C38.3694 37.2221 38.7274 37.0139 39.1099 36.7766C39.4924 36.5392 39.8581 36.2888 40.2068 36.0268C40.5555 35.7641 40.8451 35.5122 41.0756 35.2695C41.1124 35.2994 41.1386 35.3509 41.1539 35.4254C41.1685 35.4999 41.1762 35.5568 41.1762 35.5959C41.1762 35.7496 41.0817 35.9178 40.892 36.1006C40.7023 36.2834 40.4557 36.4731 40.1515 36.6682C39.8473 36.8641 39.5132 37.0569 39.1491 37.2474C38.785 37.4379 38.427 37.6177 38.0745 37.7859C37.7219 37.9541 37.4039 38.1 37.122 38.2237C37.3447 38.4764 37.5621 38.7161 37.7734 38.9442C37.9846 39.1716 38.215 39.3944 38.4639 39.6125C38.7128 39.8307 39.0039 40.0534 39.338 40.2808C39.6722 40.5081 40.077 40.7532 40.5517 41.0159C40.4995 41.0804 40.418 41.1372 40.3067 41.1864C40.1953 41.2371 40.0762 41.2617 39.9502 41.2617Z" fill="#3C4242"/>
<path d="M45.9089 40.9796C45.4557 40.9796 45.12 40.8882 44.9011 40.7046C44.6822 40.5218 44.5723 40.3013 44.5723 40.044C44.2528 40.3259 43.8856 40.5464 43.4701 40.7046C43.0545 40.8628 42.6343 40.9419 42.2119 40.9419C41.7587 40.9419 41.4191 40.859 41.1925 40.6931C40.9659 40.5272 40.853 40.3228 40.853 40.0809C40.853 39.8581 40.9368 39.6231 41.1034 39.3757C41.2709 39.1284 41.4937 38.8956 41.7717 38.6775C42.0498 38.4601 42.3563 38.2827 42.6904 38.1467C43.0245 38.0107 43.3548 37.9424 43.6821 37.9424C43.8526 37.9424 44.0108 37.9723 44.1552 38.0315C44.3004 38.0906 44.3726 38.212 44.3726 38.3956C44.3726 38.5838 44.2889 38.7604 44.1222 38.9264C43.9555 39.0923 43.7358 39.2398 43.4655 39.368C43.1943 39.4971 42.897 39.6016 42.5744 39.6837C42.2518 39.7659 41.93 39.8159 41.6112 39.8358C41.5966 39.8858 41.5851 39.9326 41.5774 39.9772C41.5697 40.0217 41.5659 40.064 41.5659 40.1031C41.5659 40.2022 41.592 40.2998 41.6442 40.3966C41.6957 40.4934 41.7848 40.5725 41.9115 40.6339C42.0375 40.6961 42.2157 40.7269 42.4461 40.7269C42.8394 40.7269 43.2296 40.6339 43.616 40.4488C44.0016 40.2629 44.3396 40.034 44.6292 39.7621C44.696 39.5593 44.8151 39.3565 44.9856 39.153C45.1561 38.9502 45.3627 38.7658 45.6039 38.5999C45.8451 38.434 46.1071 38.3003 46.389 38.1989C46.6709 38.0975 46.9574 38.0468 47.247 38.0468C47.4175 38.0468 47.5757 38.0768 47.7202 38.136C47.8646 38.1951 47.9375 38.3165 47.9375 38.5C47.9375 38.7528 47.8093 38.974 47.5535 39.1645C47.2977 39.355 46.9689 39.5071 46.5679 39.6215C46.167 39.7352 45.7553 39.8074 45.332 39.8366C45.3174 39.8865 45.3059 39.9334 45.2982 39.9779C45.2905 40.0225 45.2867 40.0647 45.2867 40.1039C45.2867 40.203 45.3105 40.3044 45.3589 40.4081C45.4073 40.5118 45.4926 40.5971 45.6147 40.6639C45.7376 40.7307 45.9135 40.7637 46.1439 40.7637C46.4635 40.7637 46.7823 40.7008 47.1018 40.5748C47.4213 40.4488 47.7178 40.2829 47.9928 40.077C48.2678 39.8719 48.4975 39.6499 48.6834 39.4126L48.817 39.4794C48.6166 39.7767 48.3585 40.0379 48.0428 40.2629C47.7271 40.488 47.386 40.6639 47.0181 40.7899C46.6494 40.9166 46.2799 40.9796 45.9089 40.9796ZM41.6657 39.6945C41.8662 39.6499 42.0928 39.5847 42.3447 39.4979C42.5975 39.4111 42.8402 39.3089 43.0745 39.1898C43.3088 39.0708 43.5016 38.9402 43.6536 38.7965C43.8057 38.6529 43.8818 38.5024 43.8818 38.3434C43.8818 38.2888 43.8672 38.2466 43.8372 38.2174C43.8073 38.1874 43.7443 38.1728 43.6483 38.1728C43.4701 38.1728 43.2803 38.2189 43.0799 38.3103C42.8794 38.4017 42.6866 38.5216 42.5007 38.6706C42.3148 38.8188 42.1481 38.9824 41.9991 39.1606C41.8508 39.3381 41.7395 39.5163 41.6657 39.6945ZM45.3858 39.6945C45.5863 39.6499 45.8052 39.5908 46.0433 39.5163C46.2807 39.4418 46.5073 39.3542 46.7231 39.2528C46.9382 39.1514 47.1164 39.0354 47.2577 38.9041C47.3983 38.7727 47.469 38.6283 47.469 38.4701C47.469 38.4156 47.4505 38.3695 47.4129 38.3326C47.376 38.2957 47.3092 38.2773 47.2124 38.2773C46.9751 38.2773 46.7354 38.3464 46.4942 38.4855C46.253 38.6237 46.0341 38.8012 45.8367 39.0162C45.64 39.2305 45.4895 39.4571 45.3858 39.6945Z" fill="#3C4242"/>
<path d="M47.7475 42.6948C47.6884 42.6948 47.6308 42.6741 47.5747 42.6319C47.5186 42.5896 47.4764 42.5451 47.4464 42.4982C47.4164 42.4513 47.4019 42.4229 47.4019 42.4129C47.5056 42.1702 47.6077 41.9536 47.7083 41.7631C47.809 41.5726 47.9088 41.3767 48.0094 41.1762C48.1093 40.9758 48.2084 40.7407 48.3044 40.4711C48.4012 40.2015 48.5011 39.8658 48.6055 39.4648C48.7092 39.0639 48.8137 38.5661 48.9174 37.9724C48.9251 37.9278 48.9397 37.8955 48.9619 37.8756C48.9842 37.8556 49.0395 37.8456 49.1286 37.8456C49.3214 37.8456 49.4589 37.8817 49.5411 37.9532C49.6225 38.0246 49.6632 38.1029 49.6632 38.1867C49.6632 38.2558 49.641 38.3795 49.5964 38.5577C49.5519 38.7359 49.4889 38.9463 49.4075 39.1891C49.5334 39.0255 49.6917 38.8596 49.8806 38.6913C50.0696 38.5231 50.287 38.3818 50.532 38.2681C50.777 38.1544 51.0444 38.0976 51.3339 38.0976C51.6604 38.0976 51.93 38.1759 52.1412 38.3311C52.3525 38.487 52.4585 38.6913 52.4585 38.944C52.4585 39.1368 52.3932 39.3412 52.2634 39.5562C52.1336 39.7713 51.9515 39.9749 51.718 40.1654C51.4845 40.3559 51.2072 40.511 50.8884 40.6293C50.5689 40.7484 50.2163 40.8075 49.8307 40.8075C49.6371 40.8075 49.482 40.7929 49.3629 40.763C49.2438 40.733 49.1847 40.7038 49.1847 40.6739C49.1847 40.6539 49.2123 40.6432 49.2684 40.6401C49.3245 40.6378 49.389 40.6362 49.4635 40.6362C49.7608 40.6362 50.0442 40.5879 50.3154 40.4911C50.5865 40.3943 50.8293 40.2668 51.0451 40.1085C51.2602 39.9503 51.4292 39.7744 51.5521 39.5816C51.6742 39.3888 51.7357 39.1983 51.7357 39.0101C51.7357 38.8519 51.6857 38.7167 51.5851 38.6053C51.4853 38.4939 51.3232 38.4386 51.1004 38.4386C50.9076 38.4386 50.7164 38.4793 50.5266 38.5607C50.3369 38.6422 50.1587 38.7466 49.992 38.8726C49.8245 38.9986 49.6763 39.1299 49.5465 39.2659C49.4167 39.4019 49.3183 39.5248 49.2515 39.6331C49.1179 40.0041 48.9842 40.362 48.8506 40.7061C48.7169 41.0503 48.5886 41.3621 48.4665 41.6417C48.3436 41.9213 48.233 42.1502 48.1324 42.3284C48.0325 42.5067 47.9488 42.6157 47.8819 42.6549C47.8435 42.6826 47.799 42.6948 47.7475 42.6948Z" fill="#3C4242"/>
<path d="M56.5018 40.8083C56.2122 40.8083 55.9963 40.7476 55.8558 40.6263C55.7144 40.5049 55.6445 40.3574 55.6445 40.1846C55.6445 40.0709 55.676 39.9273 55.739 39.7537C55.802 39.5808 55.8857 39.3988 55.9894 39.2083C56.0931 39.0178 56.2137 38.838 56.3512 38.6698C56.4887 38.5016 56.6354 38.3641 56.7914 38.2573C56.9473 38.1513 57.0994 38.0976 57.2484 38.0976C57.3152 38.0976 57.3728 38.1114 57.4212 38.1383C57.4696 38.1652 57.4934 38.2066 57.4934 38.2604C57.4934 38.3196 57.4358 38.4163 57.3206 38.55C57.2054 38.6836 57.0702 38.8373 56.9143 39.0101C56.7583 39.1837 56.6231 39.365 56.5079 39.5555C56.3927 39.746 56.3351 39.928 56.3351 40.1016C56.3351 40.2798 56.3796 40.3989 56.4687 40.458C56.5578 40.5172 56.6953 40.5471 56.8812 40.5471C57.1339 40.5471 57.4028 40.4634 57.6885 40.2944C57.9743 40.1262 58.2769 39.832 58.5965 39.4111L58.6963 39.4856C58.4813 39.9111 58.1709 40.2383 57.7661 40.4657C57.3605 40.6946 56.9396 40.8083 56.5018 40.8083ZM57.8376 37.4078C57.7185 37.4078 57.6133 37.3878 57.5203 37.3486C57.4274 37.3087 57.3813 37.2472 57.3813 37.1627C57.3813 37.059 57.4719 36.9684 57.654 36.8916C57.836 36.8148 58.0158 36.7764 58.194 36.7764C58.3053 36.7764 58.3945 36.794 58.4613 36.8286C58.5281 36.8632 58.5611 36.9231 58.5611 37.0068C58.5611 37.1005 58.4851 37.1912 58.333 37.278C58.1817 37.3648 58.0165 37.4078 57.8376 37.4078Z" fill="#3C4242"/>
<path d="M59.3298 40.9573C59.0102 40.9573 58.7652 40.8951 58.5947 40.7714C58.4241 40.6478 58.3389 40.4649 58.3389 40.2222C58.3389 40.0048 58.4003 39.736 58.5225 39.4164C58.6446 39.0969 58.799 38.7697 58.9849 38.4325C58.9104 38.4225 58.8405 38.414 58.7736 38.4063C58.7068 38.3987 58.6438 38.3879 58.5847 38.3733V38.2396C58.6438 38.2443 58.7145 38.2496 58.7959 38.2542C58.8773 38.2589 58.9703 38.2642 59.074 38.2688C59.2299 38.0015 59.3974 37.7427 59.5748 37.493C59.753 37.2434 59.9297 37.0206 60.104 36.8247C60.2784 36.6296 60.4459 36.4729 60.6056 36.357C60.7654 36.241 60.9006 36.1826 61.012 36.1826C61.0711 36.1826 61.1249 36.1964 61.1733 36.2233C61.2217 36.2502 61.2455 36.2917 61.2455 36.3454C61.2455 36.4299 61.1679 36.5667 61.012 36.7579C60.856 36.9484 60.6632 37.175 60.4328 37.4369C60.2024 37.6996 59.9796 37.9839 59.7645 38.2911C59.8314 38.2911 59.8997 38.2911 59.9704 38.2911C60.0411 38.2911 60.1094 38.2911 60.1762 38.2911C60.4213 38.2911 60.6794 38.2888 60.9505 38.2834C61.2217 38.2788 61.4944 38.2658 61.7694 38.2466V38.3802C61.3607 38.4102 60.9951 38.4325 60.6725 38.447C60.3498 38.4616 60.0618 38.4693 59.8091 38.4693C59.7791 38.4693 59.7515 38.4693 59.7254 38.4693C59.6992 38.4693 59.6716 38.4693 59.6416 38.4693C59.4711 38.732 59.3259 39.0016 59.2076 39.2789C59.0886 39.5562 59.0294 39.8258 59.0294 40.0885C59.0294 40.3013 59.0778 40.4534 59.1738 40.5448C59.2699 40.6362 59.4296 40.6823 59.6531 40.6823C60.0395 40.6823 60.4182 40.5686 60.7892 40.3405C61.1602 40.1131 61.4867 39.8036 61.7694 39.4126L61.9138 39.4871C61.7356 39.7644 61.5105 40.014 61.2401 40.2368C60.969 40.4596 60.6702 40.6355 60.3437 40.7637C60.0165 40.8928 59.6793 40.9573 59.3298 40.9573Z" fill="#3C4242"/>
<path d="M65.6454 41.0311C65.289 41.0311 64.9917 40.952 64.7544 40.7937C64.517 40.6355 64.3979 40.3981 64.3979 40.0809C64.3979 39.8336 64.4702 39.5924 64.6153 39.3565C64.7597 39.1215 64.951 38.9103 65.1891 38.7221C65.4265 38.5339 65.69 38.3841 65.9795 38.2727C66.2691 38.1613 66.5549 38.106 66.8375 38.106C67.1417 38.106 67.3499 38.1652 67.4613 38.2842C67.5727 38.4033 67.628 38.527 67.628 38.6552C67.628 38.7989 67.578 38.9249 67.4774 39.0339C67.3775 39.143 67.2416 39.1975 67.0711 39.1975C66.9451 39.1975 66.8375 39.1607 66.7477 39.0862C66.8591 39.047 66.9558 38.9663 67.0373 38.845C67.1187 38.7236 67.1602 38.6084 67.1602 38.4993C67.1602 38.4402 67.1433 38.3941 67.1102 38.3618C67.0764 38.3295 67.0119 38.3134 66.9151 38.3134C66.7146 38.3134 66.5088 38.3726 66.2968 38.4916C66.0855 38.6107 65.8881 38.7635 65.7069 38.9517C65.5248 39.1399 65.3766 39.3381 65.2613 39.5455C65.1461 39.7537 65.0885 39.9488 65.0885 40.1324C65.0885 40.286 65.1446 40.4266 65.256 40.5556C65.3673 40.6839 65.5824 40.7484 65.902 40.7484C66.1992 40.7484 66.498 40.6939 66.7984 40.5848C67.0987 40.4757 67.3791 40.3198 67.6395 40.117C67.8991 39.9142 68.1073 39.6761 68.2632 39.4042L68.4076 39.4787C68.2371 39.7759 68.0028 40.0417 67.7063 40.2768C67.409 40.5118 67.0826 40.6962 66.7262 40.8298C66.369 40.9642 66.0087 41.0311 65.6454 41.0311Z" fill="#3C4242"/>
<path d="M68.9755 40.8383C68.656 40.8383 68.4278 40.7653 68.2903 40.6193C68.1528 40.4734 68.0845 40.2914 68.0845 40.074C68.0845 39.8366 68.1513 39.5539 68.285 39.2275C68.4186 38.901 68.5953 38.5569 68.8142 38.1951C69.0331 37.8341 69.2728 37.4815 69.5324 37.1366C69.792 36.7925 70.0517 36.4799 70.3121 36.1972C70.5717 35.9153 70.8113 35.6895 71.0303 35.5212C71.2492 35.353 71.422 35.2685 71.548 35.2685C71.6294 35.2685 71.6962 35.2993 71.7485 35.3615C71.8007 35.4237 71.8414 35.4974 71.8714 35.5842C71.9006 35.671 71.9159 35.7486 71.9159 35.8177C71.9159 35.9514 71.866 36.1258 71.7654 36.3416C71.6655 36.5567 71.5242 36.7971 71.3421 37.0621C71.1601 37.3271 70.945 37.5944 70.6961 37.864C70.4473 38.1337 70.1761 38.3925 69.8834 38.6399C69.59 38.8872 69.2805 39.1 68.9532 39.2782C68.9087 39.4118 68.8733 39.5417 68.8472 39.6684C68.8211 39.7944 68.8081 39.915 68.8081 40.0287C68.8081 40.2215 68.8488 40.3651 68.9302 40.4596C69.0116 40.5533 69.1345 40.6009 69.2981 40.6009C69.4986 40.6009 69.6976 40.5418 69.8942 40.4227C70.0908 40.3036 70.2767 40.1539 70.4511 39.9733C70.6255 39.7928 70.776 39.6062 70.902 39.4126L71.0687 39.4718C70.7714 39.8927 70.4488 40.2253 70.0993 40.4703C69.7513 40.7161 69.3765 40.8383 68.9755 40.8383ZM69.0539 39.0262C69.3135 38.8526 69.5662 38.6537 69.8112 38.4286C70.0563 38.2036 70.2844 37.9693 70.4964 37.7273C70.7084 37.4846 70.8958 37.2495 71.0587 37.0222C71.2215 36.7948 71.3483 36.5905 71.4374 36.41C71.5265 36.2295 71.571 36.0897 71.571 35.9906C71.571 35.9414 71.5618 35.9091 71.5434 35.8938C71.5249 35.8792 71.508 35.8715 71.4935 35.8715C71.4343 35.8715 71.3321 35.9345 71.187 36.0605C71.0426 36.1864 70.8736 36.3562 70.68 36.569C70.4872 36.7817 70.2906 37.0245 70.0901 37.2964C69.8896 37.5683 69.6983 37.8533 69.5163 38.1506C69.3335 38.4471 69.1798 38.7397 69.0539 39.0262Z" fill="#3C4242"/>
<path d="M71.2143 40.9643C70.9839 40.9643 70.7888 40.9136 70.6298 40.8122C70.47 40.7108 70.3901 40.5564 70.3901 40.3482C70.3901 40.17 70.4493 39.978 70.5683 39.7729C70.6866 39.5678 70.8503 39.3642 71.0584 39.1637C71.2666 38.9633 71.5024 38.7804 71.7659 38.6145C72.0293 38.4486 72.3074 38.3165 72.6016 38.2174C72.895 38.1183 73.1861 38.0692 73.4757 38.0692C73.7653 38.0692 74.0065 38.1198 74.1993 38.2212C74.3921 38.3226 74.4889 38.4578 74.4889 38.6261C74.4889 38.7497 74.439 38.8342 74.3384 38.8788C74.2377 38.9233 74.1064 38.9456 73.9428 38.9456C73.9574 38.9056 73.9704 38.8626 73.9819 38.8158C73.9935 38.7689 73.9988 38.7259 73.9988 38.686C73.9988 38.5723 73.9581 38.4747 73.8767 38.3925C73.7945 38.3111 73.6539 38.2704 73.4535 38.2704C73.2453 38.2704 73.0341 38.3188 72.8182 38.4148C72.6031 38.5116 72.395 38.6399 72.1945 38.8012C71.994 38.9625 71.8158 39.1369 71.6599 39.3251C71.5039 39.5132 71.3818 39.6991 71.2919 39.8819C71.2028 40.0648 71.1583 40.2284 71.1583 40.372C71.1583 40.5648 71.2581 40.6616 71.4594 40.6616C71.6299 40.6616 71.8158 40.6086 72.0163 40.5018C72.2168 40.3958 72.4226 40.2591 72.6346 40.0932C72.8459 39.9273 73.0487 39.7552 73.2415 39.577C73.4343 39.3988 73.6056 39.2352 73.7538 39.0869C73.783 39.057 73.8022 39.0424 73.8091 39.0424C73.8537 39.047 73.9113 39.057 73.9819 39.0723C74.0526 39.0869 74.1141 39.1069 74.1655 39.1315C74.2178 39.1561 74.2439 39.1883 74.2439 39.2283C74.2439 39.2728 74.2101 39.3335 74.1432 39.4103C74.0764 39.4871 74.0019 39.5747 73.9205 39.6738C73.8383 39.7729 73.7646 39.8735 73.6977 39.9749C73.6309 40.0763 73.5979 40.1715 73.5979 40.2606C73.5979 40.3351 73.6271 40.4081 73.687 40.4796C73.7461 40.5518 73.8429 40.5871 73.9766 40.5871C74.177 40.5871 74.4405 40.4895 74.767 40.2937C75.0934 40.0986 75.4245 39.8051 75.7586 39.4134L75.87 39.4879C75.7141 39.7552 75.5136 39.9903 75.2686 40.193C75.0235 40.3958 74.7616 40.5548 74.4835 40.6685C74.2055 40.7822 73.932 40.839 73.6647 40.839C73.3897 40.839 73.1877 40.7845 73.0579 40.6754C72.9281 40.5664 72.8628 40.4481 72.8628 40.319C72.8628 40.2891 72.8666 40.256 72.8743 40.2192C72.8812 40.1823 72.8889 40.1439 72.8966 40.1039C72.577 40.3912 72.2859 40.6063 72.0224 40.7499C71.7582 40.8928 71.4886 40.9643 71.2143 40.9643Z" fill="#3C4242"/>
<path d="M76.7051 40.9942C76.3564 40.9942 76.0799 40.9435 75.8755 40.8421C75.6712 40.7407 75.5268 40.6155 75.4408 40.4673C75.3555 40.319 75.3125 40.17 75.3125 40.0217C75.3125 39.8735 75.3425 39.759 75.4016 39.6799C75.4615 39.6008 75.5337 39.5417 75.619 39.5017C75.7042 39.4618 75.7857 39.4326 75.864 39.4126C75.9424 39.3926 75.9954 39.3727 76.0253 39.3535C76.2481 39.1899 76.4524 39.0193 76.6383 38.8411C76.8242 38.6629 76.987 38.4747 77.1284 38.2765V38.1874C77.1284 38.0046 77.1745 37.874 77.2674 37.7972C77.3603 37.7204 77.4587 37.682 77.5624 37.682C77.6215 37.682 77.6661 37.692 77.696 37.712C77.726 37.7319 77.7406 37.7542 77.7406 37.7788C77.7406 37.8034 77.7298 37.8433 77.7075 37.8979C77.6853 37.9524 77.6737 38.0215 77.6737 38.106C77.6737 38.2696 77.7221 38.4463 77.8182 38.6368C77.9149 38.8273 78.011 39.0278 78.1077 39.2382C78.2038 39.4487 78.2522 39.6676 78.2522 39.895C78.2522 39.9595 78.2468 40.0225 78.2353 40.084C78.2245 40.1462 78.2076 40.2038 78.1853 40.2583C78.445 40.2284 78.69 40.1508 78.9204 40.0248C79.1509 39.8988 79.3736 39.6968 79.5887 39.4195L79.6886 39.494C79.5472 39.766 79.336 39.9726 79.0541 40.1139C78.7722 40.2553 78.4634 40.3428 78.1292 40.3774C78.0102 40.5902 77.8228 40.7461 77.567 40.8452C77.312 40.945 77.0239 40.9942 76.7051 40.9942ZM76.7274 40.7346C76.8165 40.7346 76.9356 40.7146 77.0838 40.6754C77.2321 40.6355 77.3473 40.5341 77.4295 40.3712C77.1176 40.3321 76.8411 40.2499 76.5999 40.1262C76.3587 40.0025 76.1782 39.8789 76.0599 39.7552C75.8963 39.7606 75.8149 39.8466 75.8149 40.0148C75.8149 40.193 75.8947 40.3574 76.0545 40.5087C76.2128 40.6585 76.4378 40.7346 76.7274 40.7346ZM77.4848 40.2514C77.4994 40.2023 77.5109 40.15 77.5178 40.0955C77.5255 40.041 77.5293 39.9764 77.5293 39.9027C77.5293 39.6699 77.4863 39.4387 77.4011 39.2083C77.3158 38.9778 77.2436 38.7612 77.1837 38.5585C77.0131 38.7466 76.8326 38.9264 76.6437 39.0969C76.4547 39.2674 76.2742 39.4103 76.1037 39.524C76.2151 39.6822 76.3879 39.8312 76.6214 39.9695C76.8557 40.1085 77.143 40.2023 77.4848 40.2514Z" fill="#3C4242"/>
<path d="M80.5469 40.9942C80.1982 40.9942 79.9217 40.9435 79.7173 40.8421C79.513 40.7407 79.3686 40.6155 79.2826 40.4673C79.1973 40.319 79.1543 40.17 79.1543 40.0217C79.1543 39.8735 79.1843 39.759 79.2434 39.6799C79.3033 39.6008 79.3755 39.5417 79.4608 39.5017C79.546 39.4618 79.6275 39.4326 79.7058 39.4126C79.7842 39.3926 79.8372 39.3727 79.8671 39.3535C80.0899 39.1899 80.2942 39.0193 80.4801 38.8411C80.666 38.6629 80.8288 38.4747 80.9702 38.2765V38.1874C80.9702 38.0046 81.0163 37.874 81.1092 37.7972C81.2021 37.7204 81.3005 37.682 81.4042 37.682C81.4633 37.682 81.5079 37.692 81.5378 37.712C81.5678 37.7319 81.5824 37.7542 81.5824 37.7788C81.5824 37.8034 81.5716 37.8433 81.5493 37.8979C81.5271 37.9524 81.5155 38.0215 81.5155 38.106C81.5155 38.2696 81.5639 38.4463 81.66 38.6368C81.7567 38.8273 81.8528 39.0278 81.9495 39.2382C82.0456 39.4487 82.0939 39.6676 82.0939 39.895C82.0939 39.9595 82.0886 40.0225 82.077 40.084C82.0663 40.1462 82.0494 40.2038 82.0271 40.2583C82.2868 40.2284 82.5318 40.1508 82.7622 40.0248C82.9927 39.8988 83.2154 39.6968 83.4305 39.4195L83.5304 39.494C83.389 39.766 83.1778 39.9726 82.8959 40.1139C82.614 40.2553 82.3052 40.3428 81.971 40.3774C81.852 40.5902 81.6646 40.7461 81.4088 40.8452C81.1545 40.945 80.8665 40.9942 80.5469 40.9942ZM80.5692 40.7346C80.6583 40.7346 80.7774 40.7146 80.9256 40.6754C81.0739 40.6355 81.1891 40.5341 81.2713 40.3712C80.9594 40.3321 80.6829 40.2499 80.4417 40.1262C80.2005 40.0025 80.02 39.8789 79.9017 39.7552C79.7381 39.7606 79.6567 39.8466 79.6567 40.0148C79.6567 40.193 79.7365 40.3574 79.8963 40.5087C80.0553 40.6585 80.2796 40.7346 80.5692 40.7346ZM81.3266 40.2514C81.3412 40.2023 81.3527 40.15 81.3596 40.0955C81.3673 40.041 81.3711 39.9764 81.3711 39.9027C81.3711 39.6699 81.3281 39.4387 81.2429 39.2083C81.1576 38.9778 81.0854 38.7612 81.0255 38.5585C80.8549 38.7466 80.6744 38.9264 80.4855 39.0969C80.2965 39.2674 80.116 39.4103 79.9455 39.524C80.0569 39.6822 80.2297 39.8312 80.4632 39.9695C80.6975 40.1085 80.9855 40.2023 81.3266 40.2514Z" fill="#3C4242"/>
<path d="M83.6996 42.6949C83.5137 42.6949 83.3509 42.6618 83.2096 42.595C83.0682 42.5282 82.9976 42.4306 82.9976 42.3016C82.9976 42.1433 83.0575 42.002 83.1758 41.8783C83.2941 41.7547 83.4538 41.641 83.6551 41.5365C83.8556 41.4328 84.0852 41.3337 84.3456 41.2392C84.6053 41.1455 84.8764 41.0511 85.1583 40.9573C85.262 40.7745 85.368 40.5702 85.4756 40.3451C85.5831 40.1201 85.6853 39.8712 85.782 39.5993C85.5447 39.8566 85.2904 40.0778 85.0193 40.2637C84.7481 40.4496 84.4601 40.5418 84.1559 40.5418C84.0146 40.5418 83.8755 40.521 83.738 40.4788C83.6005 40.4365 83.4876 40.3713 83.3985 40.2822C83.3094 40.193 83.2649 40.0794 83.2649 39.9403C83.2649 39.8021 83.3002 39.6408 83.3709 39.4579C83.4415 39.2751 83.5283 39.0969 83.6328 38.9233C83.7365 38.7505 83.844 38.6068 83.9562 38.4924C84.0683 38.3779 84.1644 38.3219 84.2458 38.3219C84.2757 38.3219 84.3295 38.3295 84.4071 38.3441C84.4854 38.3587 84.5592 38.3802 84.6298 38.4071C84.7005 38.4348 84.7358 38.4632 84.7358 38.4924C84.669 38.5569 84.5945 38.6483 84.5131 38.7674C84.4309 38.8864 84.3518 39.0186 84.2734 39.1645C84.1958 39.3105 84.1306 39.4526 84.0783 39.5916C84.0261 39.7299 84.0007 39.8489 84.0007 39.948C84.0007 40.0371 84.0299 40.1085 84.0898 40.1631C84.149 40.2176 84.2535 40.2445 84.4017 40.2445C84.5423 40.2445 84.7005 40.1992 84.8749 40.107C85.0492 40.0156 85.2236 39.8981 85.3987 39.7544C85.5731 39.6108 85.7344 39.4572 85.8834 39.2943C85.9057 39.2398 85.9257 39.1845 85.9449 39.1276C85.9633 39.0708 85.9802 39.0124 85.9948 38.9533C86.0171 38.8841 86.0709 38.8035 86.1561 38.7121C86.2414 38.6207 86.3773 38.5746 86.5625 38.5746C86.5993 38.5746 86.6362 38.5761 86.6738 38.5784C86.7107 38.5807 86.7514 38.5869 86.796 38.5969C86.796 38.676 86.7606 38.8235 86.69 39.0385C86.6193 39.2536 86.5187 39.5056 86.3889 39.7921C86.2591 40.0794 86.1047 40.3736 85.9265 40.6754C86.2752 40.5863 86.617 40.4388 86.9511 40.2338C87.2853 40.0287 87.5564 39.7544 87.7638 39.4134L87.9082 39.4879C87.7969 39.7253 87.6279 39.9319 87.4013 40.1078C87.1747 40.2837 86.9204 40.4342 86.6385 40.561C86.3566 40.687 86.0778 40.7922 85.8028 40.8767C85.61 41.1932 85.4003 41.4904 85.1737 41.7677C84.9471 42.045 84.7097 42.2693 84.4608 42.4398C84.2135 42.6096 83.9593 42.6949 83.6996 42.6949ZM83.6436 42.4567C83.7549 42.4567 83.9424 42.3592 84.2058 42.1633C84.4693 41.9674 84.7497 41.6248 85.0469 41.1348C84.7428 41.2439 84.4601 41.3514 84.2005 41.4582C83.9408 41.5642 83.7327 41.6794 83.5767 41.8038C83.4208 41.9275 83.3432 42.0711 83.3432 42.2347C83.3432 42.2747 83.3655 42.3215 83.41 42.3761C83.4546 42.4299 83.5322 42.4567 83.6436 42.4567Z" fill="#3C4242"/>
<path d="M87.998 40.69C87.9012 40.69 87.8183 40.6739 87.7476 40.6416C87.6769 40.6094 87.6416 40.5587 87.6416 40.4895C87.6416 40.435 87.6746 40.3843 87.7415 40.3375C87.8083 40.2906 87.892 40.253 87.9919 40.2261C88.0917 40.1992 88.1901 40.1854 88.2868 40.1854C88.3759 40.1854 88.4466 40.1977 88.4981 40.2222C88.5495 40.2468 88.5757 40.2944 88.5757 40.3636C88.5757 40.4135 88.548 40.4627 88.4919 40.5118C88.4358 40.561 88.3636 40.6032 88.2745 40.6378C88.1854 40.6724 88.0948 40.69 87.998 40.69Z" fill="#3C4242"/>
</svg>
